<?xml version="1.0" standalone="no"?>
<!DOCTYPE svg PUBLIC "-//W3C//DTD SVG 20010904//EN"
 "http://www.w3.org/TR/2001/REC-SVG-20010904/DTD/svg10.dtd">
<svg version="1.0" xmlns="http://www.w3.org/2000/svg"
 width="287.000000pt" height="287.000000pt" viewBox="0 0 287.000000 287.000000"
 preserveAspectRatio="xMidYMid meet">
<metadata>
Created by potrace 1.14, written by Peter Selinger 2001-2017
</metadata>
<g transform="translate(0.000000,287.000000) scale(0.100000,-0.100000)"
fill="#000000" stroke="none">
<path d="M842 2228 c-168 -19 -318 -152 -359 -318 -20 -84 3 -232 47 -306 117
-196 378 -265 570 -151 19 12 37 23 40 26 55 58 93 84 141 94 l53 12 -77 38
c-43 20 -80 37 -82 37 -3 0 -30 -23 -61 -51 -72 -65 -131 -92 -211 -94 -127
-4 -229 58 -283 171 -27 55 -31 75 -29 132 2 82 23 138 72 196 68 82 209 126
303 96 45 -14 339 -126 369 -140 11 -5 38 -16 59 -25 l40 -16 -75 -76 c-113
-117 -104 -114 -193 -72 -34 16 -42 25 -44 50 -5 60 -51 117 -126 156 -46 24
-155 22 -188 -3 -58 -43 -72 -98 -39 -162 61 -120 237 -167 319 -85 7 7 16 13
19 13 5 0 45 -20 448 -222 203 -102 287 -134 350 -132 169 4 321 99 386 240
34 75 40 101 40 182 -1 79 -6 103 -42 177 -83 174 -267 267 -453 230 -86 -17
-141 -46 -214 -110 -37 -32 -74 -56 -88 -56 -64 -4 -62 -9 21 -53 l74 -39 57
51 c84 75 132 96 229 96 68 1 88 -3 131 -26 68 -36 112 -81 141 -145 74 -161
-2 -347 -167 -412 -55 -21 -144 -22 -203 -1 -56 19 -279 105 -312 120 -11 4
-42 16 -68 26 -26 9 -50 21 -53 26 -7 11 155 178 172 178 8 0 37 -11 66 -23
48 -21 54 -28 56 -56 7 -92 102 -169 217 -175 94 -6 102 20 17 56 -67 30 -89
50 -70 66 9 7 38 -1 98 -28 60 -27 89 -35 98 -28 21 17 14 28 -30 47 -100 43
-138 64 -138 76 0 25 31 24 88 -3 50 -24 66 -28 87 -23 10 2 -41 70 -69 92
-78 62 -198 70 -254 18 l-23 -21 -332 165 c-183 91 -341 168 -352 172 -43 15
-113 20 -173 13z"/>
<path d="M2023 1243 c-7 -3 -13 -16 -13 -29 0 -19 5 -24 24 -24 28 0 39 11 30
33 -6 18 -24 26 -41 20z"/>
<path d="M901 1212 c-6 -2 -11 -21 -11 -43 0 -32 -3 -39 -20 -39 -16 0 -20 -7
-20 -34 0 -25 5 -35 20 -39 18 -5 20 -14 20 -87 0 -73 3 -83 25 -105 27 -28
89 -34 119 -12 14 10 15 18 7 40 -6 16 -16 25 -24 21 -22 -8 -38 20 -39 68 -1
77 0 78 32 78 27 0 29 3 28 35 -1 29 -5 35 -24 35 -28 0 -37 14 -36 51 0 16
-2 29 -6 30 -31 3 -62 4 -71 1z"/>
<path d="M2170 1171 c0 -33 -4 -40 -22 -43 -31 -4 -33 -38 -2 -38 24 0 24 -1
24 -105 0 -92 3 -108 20 -125 21 -21 74 -27 98 -12 20 13 3 44 -20 36 -38 -12
-48 12 -48 112 l0 94 35 0 c28 0 35 4 35 19 0 15 -8 21 -32 23 -30 3 -33 6
-36 41 -3 32 -7 37 -28 37 -21 0 -24 -4 -24 -39z"/>
<path d="M301 1139 c-18 -4 -49 -23 -69 -42 -28 -28 -36 -45 -40 -86 -2 -27
-2 -61 2 -74 9 -36 62 -84 105 -94 42 -11 123 5 147 29 13 12 11 17 -11 38
-22 21 -29 22 -45 12 -40 -25 -110 -6 -110 30 0 13 16 15 100 14 74 -1 101 2
105 11 9 24 -29 116 -56 135 -33 25 -86 36 -128 27z m77 -81 c26 -26 13 -38
-43 -38 -41 0 -55 4 -55 15 0 30 73 48 98 23z"/>
<path d="M585 1128 c-40 -14 -39 -13 -25 -47 10 -26 15 -29 37 -20 37 14 80
11 97 -7 27 -26 19 -36 -24 -29 -115 19 -194 -83 -121 -156 24 -23 38 -29 73
-29 24 0 54 7 66 16 20 13 22 13 22 0 0 -11 10 -15 38 -14 20 0 42 4 48 9 14
11 9 200 -6 228 -28 54 -126 77 -205 49z m120 -193 c0 -28 -2 -30 -39 -30 -46
0 -68 23 -46 50 9 11 25 15 49 13 33 -3 36 -6 36 -33z"/>
<path d="M1184 1131 c-11 -5 -33 -23 -47 -41 -94 -112 -13 -271 127 -250 24 4
57 15 72 25 26 17 26 19 9 31 -15 11 -22 11 -46 -1 -58 -30 -114 -12 -144 46
-18 33 -33 29 125 32 94 2 95 2 94 27 -3 80 -48 131 -121 136 -26 2 -57 0 -69
-5z m91 -43 c22 -10 55 -53 55 -73 0 -3 -40 -5 -90 -5 -97 0 -104 5 -74 48 27
39 67 50 109 30z"/>
<path d="M1546 1115 c-37 -25 -38 -25 -43 -5 -3 13 -14 20 -29 20 l-24 0 0
-145 0 -145 25 0 c23 0 25 4 26 43 1 143 4 159 33 183 15 13 38 24 52 24 19 0
24 5 24 25 0 32 -17 32 -64 0z"/>
<path d="M1682 1131 c-7 -4 -12 -51 -13 -131 -1 -170 -3 -160 26 -158 27 3 29
10 25 140 -1 48 3 62 23 83 32 35 72 39 105 10 26 -22 27 -28 28 -127 1 -97 3
-103 22 -104 28 -2 29 5 27 123 -1 120 -16 152 -79 167 -30 8 -45 6 -81 -12
-34 -17 -45 -18 -45 -8 0 17 -22 27 -38 17z"/>
<path d="M2010 987 l0 -143 25 -2 25 -2 0 145 0 145 -25 0 -25 0 0 -143z"/>
<path d="M2340 1126 c0 -2 27 -66 60 -142 33 -76 60 -144 60 -151 0 -25 -39
-54 -64 -47 -17 4 -25 0 -30 -12 -9 -24 12 -36 54 -30 58 9 65 21 191 339 l19
47 -25 0 c-21 0 -28 -12 -66 -110 -33 -87 -45 -108 -54 -98 -7 7 -29 57 -51
110 -36 91 -41 98 -66 98 -16 0 -28 -2 -28 -4z"/>
<path d="M926 711 c-22 -24 -20 -58 3 -66 26 -8 51 4 51 26 0 12 -5 16 -14 13
-9 -3 -12 -12 -9 -21 8 -21 -17 -12 -31 10 -8 13 -7 20 4 27 8 5 20 8 27 5 7
-2 15 0 18 4 10 17 -34 18 -49 2z"/>
<path d="M2178 722 c-25 -3 -28 -7 -28 -43 0 -37 2 -39 30 -39 17 0 30 5 30
10 0 6 -6 10 -12 9 -34 -4 -40 3 -13 16 l30 13 -28 1 c-17 1 -26 5 -22 12 4 6
13 8 21 5 7 -3 16 -1 20 5 8 14 4 15 -28 11z"/>
<path d="M614 705 c13 -10 17 -22 14 -40 -3 -14 -1 -25 3 -25 5 0 9 15 9 34 0
19 6 37 13 39 6 3 -4 6 -23 6 -32 0 -34 -1 -16 -14z"/>
<path d="M764 685 c-18 -45 -18 -46 10 -35 17 6 26 5 29 -3 2 -7 8 -9 12 -5 8
8 -16 78 -28 78 -4 0 -15 -16 -23 -35z m26 -5 c0 -5 -4 -10 -10 -10 -5 0 -10
5 -10 10 0 6 5 10 10 10 6 0 10 -4 10 -10z"/>
<path d="M1070 681 c0 -38 2 -41 28 -40 27 0 27 0 3 10 -18 7 -22 15 -18 34 2
14 0 28 -4 31 -5 3 -9 -13 -9 -35z"/>
<path d="M1210 681 c0 -23 4 -40 8 -37 9 5 7 64 -2 73 -3 4 -6 -13 -6 -36z"/>
<path d="M1317 690 c-9 -44 -9 -50 3 -50 6 0 10 12 10 28 l1 27 17 -27 c23
-39 37 -35 39 12 2 22 -2 40 -7 40 -6 0 -10 -12 -10 -27 l0 -28 -23 29 -24 29
-6 -33z"/>
<path d="M1480 680 c0 -39 1 -40 33 -39 27 1 29 2 9 7 -24 7 -28 29 -5 24 7
-2 13 2 13 8 0 5 -3 9 -7 9 -18 -3 -33 2 -33 10 0 5 12 12 28 14 25 4 25 4 -5
6 -32 1 -33 0 -33 -39z"/>
<path d="M1690 680 c0 -24 5 -40 12 -40 6 0 8 3 5 7 -11 10 13 32 29 26 8 -3
15 -13 15 -22 1 -9 4 -2 8 14 9 39 1 67 -11 36 -6 -18 -11 -20 -28 -11 -11 6
-18 15 -15 21 4 5 1 9 -4 9 -6 0 -11 -18 -11 -40z"/>
<path d="M1859 718 c0 -2 -2 -20 -4 -40 -2 -37 -1 -38 29 -37 23 1 25 3 9 6
-13 2 -23 11 -23 18 0 8 6 12 14 9 8 -3 17 -1 20 4 3 5 -2 9 -11 8 -9 0 -18 5
-21 13 -2 8 0 11 5 8 5 -3 15 -2 23 4 11 6 8 9 -12 9 -16 0 -28 -1 -29 -2z"/>
<path d="M2001 678 c0 -29 3 -37 8 -24 7 17 8 17 23 2 22 -22 23 -22 26 24 2
38 1 40 -28 40 -29 0 -30 -2 -29 -42z m44 23 c7 -12 -12 -24 -25 -16 -11 7 -4
25 10 25 5 0 11 -4 15 -9z"/>
</g>
</svg>
